<svg xmlns="http://www.w3.org/2000/svg" xmlns:xlink="http://www.w3.org/1999/xlink" viewBox="0 0 1280 847.98"><defs><style>.cls-1{fill:#191919;}.cls-2{fill:url(#linear-gradient);}.cls-3{fill:url(#linear-gradient-2);}.cls-4{fill:#242d22;}.cls-5{fill:url(#linear-gradient-3);}.cls-6{fill:url(#linear-gradient-4);}.cls-7{fill:url(#linear-gradient-5);}.cls-8{fill:url(#linear-gradient-6);}.cls-9{fill:url(#linear-gradient-7);}.cls-10{opacity:0.15;}.cls-11{fill:#060e0b;}.cls-12{fill:#303735;}.cls-13{fill:#576b4e;}.cls-14{fill:#0f1312;}.cls-15{opacity:0.25;}.cls-16{fill:#0a171a;}.cls-17{fill:#0c171a;}.cls-18{fill:#d99fac;}.cls-19{fill:#c69fb3;}.cls-20{fill:#41364f;}.cls-21{opacity:0.1;}.cls-22{fill:#0f1e2b;}.cls-23{fill:#c8b19c;}.cls-24{fill:#b2b1a6;}.cls-25{fill:#97998d;}.cls-26{fill:#293a45;}.cls-27{fill:#ae86a0;}.cls-28{fill:#565c79;}.cls-29{fill:#372c45;}.cls-30{fill:#878599;}.cls-31{fill:#777e99;}.cls-32{fill:#49496c;}.cls-33{fill:#283b3b;}.cls-34{fill:#3d4a4e;}.cls-35{fill:#0a1d1d;}.cls-36{fill:#777991;}.cls-37{fill:#607189;}.cls-38{fill:#545778;}.cls-39{fill:#df7c2d;}.cls-40{fill:#4d271e;}.cls-41{fill:#c57025;}.cls-42{fill:#fb8a33;}.cls-43{fill:#632c10;}.cls-44{fill:#ffb169;}.cls-45{fill:#af5819;}.cls-46{fill:#874e29;}.cls-47{fill:#283b26;}.cls-48{fill:#1e1e16;}.cls-49{fill:#1f3233;}.cls-50{fill:#6c7975;}.cls-51{fill:#516666;}.cls-52{fill:#122727;}.cls-53{fill:#b3a4c3;}.cls-54{fill:#dfb8ce;}.cls-55{fill:#fe912b;}.cls-56{fill:#bb7538;}.cls-57{fill:#ffc17d;}.cls-58{fill:#9fa89f;}.cls-59{fill:#5a615f;}.cls-60{fill:#172c2b;}.cls-61{fill:#9d7e97;}.cls-62{fill:#5b5d78;}.cls-63{fill:#a9a6ba;}.cls-64{fill:#c99c76;}.cls-65{fill:#fdbc70;}.cls-66{fill:#a96333;}.cls-67{fill:#b77041;}.cls-68{fill:#fea85d;}.cls-69{fill:#7f4d25;}.cls-70{fill:#13191e;}.cls-71{fill:#0d1312;}.cls-72{fill:#03160f;}.cls-73{fill:#080e0c;}.cls-74{fill:#5d3821;}.cls-75{fill:#0a100f;}.cls-76{fill:#2f392f;}.cls-77{fill:#ff9b4f;}.cls-78{fill:#aa642e;}.cls-79{fill:#a77f9b;}.cls-80{fill:#574a63;}.cls-81{fill:url(#linear-gradient-8);}.cls-82{opacity:0.4;}.cls-83{fill:url(#linear-gradient-9);}.cls-84{fill:url(#linear-gradient-10);}.cls-85{fill:url(#linear-gradient-11);}.cls-86{fill:url(#linear-gradient-12);}.cls-87{fill:url(#linear-gradient-13);}.cls-88{fill:url(#linear-gradient-14);}.cls-89{fill:url(#linear-gradient-15);}.cls-90{fill:url(#linear-gradient-16);}.cls-91{fill:url(#linear-gradient-17);}.cls-92{fill:url(#linear-gradient-18);}.cls-93{fill:url(#linear-gradient-19);}.cls-94{fill:url(#linear-gradient-20);}.cls-95{fill:url(#linear-gradient-21);}.cls-96{fill:url(#linear-gradient-22);}.cls-97{fill:url(#linear-gradient-23);}.cls-98{fill:url(#linear-gradient-24);}.cls-99{fill:url(#linear-gradient-25);}.cls-100{fill:url(#linear-gradient-26);}.cls-101{fill:url(#linear-gradient-27);}.cls-102{fill:url(#linear-gradient-28);}.cls-103{fill:url(#linear-gradient-29);}.cls-104{fill:url(#linear-gradient-30);}.cls-105{fill:url(#linear-gradient-31);}.cls-106{fill:url(#linear-gradient-32);}.cls-107{opacity:0.35;}.cls-108{fill:url(#linear-gradient-33);}.cls-109{fill:url(#linear-gradient-34);}.cls-110{fill:url(#linear-gradient-35);}.cls-111{fill:url(#linear-gradient-36);}.cls-112{fill:url(#linear-gradient-37);}.cls-113{fill:url(#linear-gradient-38);}.cls-114{fill:url(#linear-gradient-39);}.cls-115{fill:url(#linear-gradient-40);}.cls-116{fill:url(#linear-gradient-41);}.cls-117{fill:url(#linear-gradient-42);}.cls-118{fill:url(#linear-gradient-43);}.cls-119{fill:url(#linear-gradient-44);}.cls-120{fill:url(#linear-gradient-45);}.cls-121{fill:url(#linear-gradient-46);}.cls-122{fill:url(#linear-gradient-47);}.cls-123{fill:url(#linear-gradient-48);}.cls-124{fill:url(#linear-gradient-49);}.cls-125{fill:url(#linear-gradient-50);}.cls-126{fill:url(#linear-gradient-51);}.cls-127{fill:url(#linear-gradient-52);}.cls-128{fill:url(#linear-gradient-53);}.cls-129{fill:url(#linear-gradient-54);}.cls-130{fill:url(#linear-gradient-55);}</style><linearGradient id="linear-gradient" x1="19.63" y1="394.38" x2="894.33" y2="394.38" gradientUnits="userSpaceOnUse"><stop offset="0" stop-color="#fff"/><stop offset="0" stop-color="#a9b6b3"/><stop offset="0.37" stop-color="#758c7d"/><stop offset="0.7" stop-color="#869b83"/><stop offset="1" stop-color="#90a587"/></linearGradient><linearGradient id="linear-gradient-2" x1="187.74" y1="420.15" x2="409.5" y2="420.15" gradientUnits="userSpaceOnUse"><stop offset="0" stop-color="#728981" stop-opacity="0"/><stop offset="0.14" stop-color="#728981" stop-opacity="0.07"/><stop offset="0.37" stop-color="#728981" stop-opacity="0.27"/><stop offset="0.67" stop-color="#728981" stop-opacity="0.59"/><stop offset="1" stop-color="#728981"/></linearGradient><linearGradient id="linear-gradient-3" x1="384.81" y1="681.24" x2="480.88" y2="777.31" gradientUnits="userSpaceOnUse"><stop offset="0" stop-color="#76867a"/><stop offset="0.23" stop-color="#728276"/><stop offset="0.48" stop-color="#677469"/><stop offset="0.74" stop-color="#545f54"/><stop offset="1" stop-color="#3a4138"/></linearGradient><linearGradient id="linear-gradient-4" x1="419.71" y1="653.19" x2="722.87" y2="706.65" gradientUnits="userSpaceOnUse"><stop offset="0" stop-color="#475751"/><stop offset="0.16" stop-color="#394440"/><stop offset="0.34" stop-color="#2e3633"/><stop offset="0.5" stop-color="#2a312e"/><stop offset="0.71" stop-color="#2d3532"/><stop offset="0.91" stop-color="#34413c"/><stop offset="1" stop-color="#394843"/></linearGradient><linearGradient id="linear-gradient-5" x1="821.68" y1="358.83" x2="942.19" y2="808.6" gradientUnits="userSpaceOnUse"><stop offset="0" stop-color="#fff"/><stop offset="0" stop-color="#90a587"/><stop offset="0.04" stop-color="#8ca084"/><stop offset="0.47" stop-color="#657365"/><stop offset="0.81" stop-color="#4d5752"/><stop offset="1" stop-color="#444d4b"/></linearGradient><linearGradient id="linear-gradient-6" x1="871.79" y1="357.36" x2="1349.1" y2="632.94" xlink:href="#linear-gradient-5"/><linearGradient id="linear-gradient-7" x1="350.17" y1="667.48" x2="399.21" y2="692.47" gradientUnits="userSpaceOnUse"><stop offset="0" stop-color="#98b3b0"/><stop offset="0.37" stop-color="#99b2ac"/><stop offset="0.76" stop-color="#9daf9e"/><stop offset="1" stop-color="#a1ac93"/></linearGradient><linearGradient id="linear-gradient-8" x1="89.29" y1="640.97" x2="102.15" y2="701.46" gradientUnits="userSpaceOnUse"><stop offset="0" stop-color="#c85559"/><stop offset="0.07" stop-color="#bf5053"/><stop offset="0.32" stop-color="#9f3e40"/><stop offset="0.56" stop-color="#883132"/><stop offset="0.8" stop-color="#7b292a"/><stop offset="1" stop-color="#762627"/></linearGradient><linearGradient id="linear-gradient-9" x1="128.72" y1="612.66" x2="133.19" y2="629.34" gradientUnits="userSpaceOnUse"><stop offset="0" stop-color="#c85559"/><stop offset="0.15" stop-color="#af474a"/><stop offset="0.34" stop-color="#96383b"/><stop offset="0.54" stop-color="#842e30"/><stop offset="0.76" stop-color="#792829"/><stop offset="1" stop-color="#762627"/></linearGradient><linearGradient id="linear-gradient-10" x1="172.41" y1="425.16" x2="166.78" y2="457.07" gradientUnits="userSpaceOnUse"><stop offset="0" stop-color="#c85559"/><stop offset="0.14" stop-color="#b1484b"/><stop offset="0.34" stop-color="#97393b"/><stop offset="0.55" stop-color="#852e30"/><stop offset="0.76" stop-color="#7a2829"/><stop offset="1" stop-color="#762627"/></linearGradient><linearGradient id="linear-gradient-11" x1="153.5" y1="445.45" x2="147.15" y2="481.46" xlink:href="#linear-gradient-10"/><linearGradient id="linear-gradient-12" x1="190.91" y1="399.08" x2="197.31" y2="435.35" xlink:href="#linear-gradient-10"/><linearGradient id="linear-gradient-13" x1="277.42" y1="398.28" x2="283.79" y2="434.42" gradientTransform="translate(-33.06 24.03) rotate(-4.67)" xlink:href="#linear-gradient-10"/><linearGradient id="linear-gradient-14" x1="248.16" y1="483.43" x2="250.29" y2="495.51" xlink:href="#linear-gradient-10"/><linearGradient id="linear-gradient-15" x1="316.43" y1="507.69" x2="317.99" y2="516.57" xlink:href="#linear-gradient-10"/><linearGradient id="linear-gradient-16" x1="329.28" y1="393.9" x2="337.41" y2="424.23" gradientUnits="userSpaceOnUse"><stop offset="0" stop-color="#c85559"/><stop offset="0.05" stop-color="#b94d50"/><stop offset="0.17" stop-color="#a13f41"/><stop offset="0.3" stop-color="#8e3435"/><stop offset="0.45" stop-color="#802c2d"/><stop offset="0.64" stop-color="#782728"/><stop offset="1" stop-color="#762627"/></linearGradient><linearGradient id="linear-gradient-17" x1="366.48" y1="316.16" x2="366.48" y2="328.71" gradientUnits="userSpaceOnUse"><stop offset="0" stop-color="#c85559"/><stop offset="0.25" stop-color="#b0484b"/><stop offset="0.75" stop-color="#862f31"/><stop offset="1" stop-color="#762627"/></linearGradient><linearGradient id="linear-gradient-18" x1="355.59" y1="338.44" x2="355.59" y2="349.97" xlink:href="#linear-gradient-17"/><linearGradient id="linear-gradient-19" x1="305.26" y1="272.61" x2="299.18" y2="295.28" xlink:href="#linear-gradient-17"/><linearGradient id="linear-gradient-20" x1="329.53" y1="248.5" x2="323.28" y2="271.83" xlink:href="#linear-gradient-17"/><linearGradient id="linear-gradient-21" x1="242.78" y1="692.14" x2="242.78" y2="700.98" xlink:href="#linear-gradient-9"/><linearGradient id="linear-gradient-22" x1="263.85" y1="661.93" x2="264.64" y2="671.02" xlink:href="#linear-gradient-9"/><linearGradient id="linear-gradient-23" x1="735.17" y1="703.47" x2="735.17" y2="708.31" gradientUnits="userSpaceOnUse"><stop offset="0" stop-color="#f77642"/><stop offset="0.04" stop-color="#f37040"/><stop offset="0.26" stop-color="#e45737"/><stop offset="0.49" stop-color="#d94530"/><stop offset="0.73" stop-color="#d23a2c"/><stop offset="1" stop-color="#d0372b"/></linearGradient><linearGradient id="linear-gradient-24" x1="696.29" y1="664.2" x2="695.93" y2="667.62" xlink:href="#linear-gradient-23"/><linearGradient id="linear-gradient-25" x1="727.4" y1="637.46" x2="727.11" y2="640.21" gradientTransform="translate(226.14 -189.19) rotate(17.5)" xlink:href="#linear-gradient-23"/><linearGradient id="linear-gradient-26" x1="721.22" y1="615.57" x2="716.94" y2="631.55" xlink:href="#linear-gradient-23"/><linearGradient id="linear-gradient-27" x1="739.35" y1="563.67" x2="739.35" y2="574.25" xlink:href="#linear-gradient-23"/><linearGradient id="linear-gradient-28" x1="791.49" y1="516.77" x2="785.68" y2="549.71" gradientUnits="userSpaceOnUse"><stop offset="0" stop-color="#f77642"/><stop offset="0.1" stop-color="#ec643b"/><stop offset="0.25" stop-color="#df5034"/><stop offset="0.43" stop-color="#d7422f"/><stop offset="0.64" stop-color="#d2392c"/><stop offset="1" stop-color="#d0372b"/></linearGradient><linearGradient id="linear-gradient-29" x1="876.42" y1="555.68" x2="876.42" y2="561.05" xlink:href="#linear-gradient-28"/><linearGradient id="linear-gradient-30" x1="856.71" y1="515.64" x2="856.71" y2="524.1" xlink:href="#linear-gradient-28"/><linearGradient id="linear-gradient-31" x1="862.46" y1="450.15" x2="859" y2="483.06" xlink:href="#linear-gradient-28"/><linearGradient id="linear-gradient-32" x1="878.05" y1="397.53" x2="874.54" y2="426.12" xlink:href="#linear-gradient-28"/><linearGradient id="linear-gradient-33" x1="919.44" y1="375.04" x2="918.13" y2="390.06" xlink:href="#linear-gradient-28"/><linearGradient id="linear-gradient-34" x1="649.67" y1="586.31" x2="658.72" y2="586.31" gradientUnits="userSpaceOnUse"><stop offset="0" stop-color="#28637f"/><stop offset="0.34" stop-color="#164f6a"/><stop offset="0.69" stop-color="#0a425d"/><stop offset="1" stop-color="#063e58"/></linearGradient><linearGradient id="linear-gradient-35" x1="664.04" y1="555.68" x2="664.04" y2="558.8" xlink:href="#linear-gradient-34"/><linearGradient id="linear-gradient-36" x1="680.33" y1="510.31" x2="679.56" y2="519.1" xlink:href="#linear-gradient-34"/><linearGradient id="linear-gradient-37" x1="693.74" y1="445.56" x2="692.85" y2="455.67" xlink:href="#linear-gradient-34"/><linearGradient id="linear-gradient-38" x1="652.24" y1="476.23" x2="651.58" y2="483.76" xlink:href="#linear-gradient-34"/><linearGradient id="linear-gradient-39" x1="703.78" y1="493.2" x2="702.62" y2="506.53" xlink:href="#linear-gradient-34"/><linearGradient id="linear-gradient-40" x1="703.67" y1="431.33" x2="703.01" y2="438.78" xlink:href="#linear-gradient-34"/><linearGradient id="linear-gradient-41" x1="717.32" y1="415.47" x2="716.69" y2="422.69" xlink:href="#linear-gradient-34"/><linearGradient id="linear-gradient-42" x1="721.57" y1="338.35" x2="719.65" y2="360.34" xlink:href="#linear-gradient-34"/><linearGradient id="linear-gradient-43" x1="732.32" y1="324.27" x2="731.59" y2="332.58" xlink:href="#linear-gradient-34"/><linearGradient id="linear-gradient-44" x1="636.82" y1="372.05" x2="636.11" y2="380.23" xlink:href="#linear-gradient-34"/><linearGradient id="linear-gradient-45" x1="428.15" y1="534.7" x2="428.15" y2="555.38" gradientUnits="userSpaceOnUse"><stop offset="0" stop-color="#9ca4a1"/><stop offset="0.28" stop-color="#959a92"/><stop offset="0.66" stop-color="#8e9185"/><stop offset="1" stop-color="#8c8e80"/></linearGradient><linearGradient id="linear-gradient-46" x1="452.1" y1="538.14" x2="452.1" y2="541.45" xlink:href="#linear-gradient-45"/><linearGradient id="linear-gradient-47" x1="509.75" y1="490.43" x2="509.75" y2="513.17" gradientUnits="userSpaceOnUse"><stop offset="0" stop-color="#f6e5d0"/><stop offset="0.18" stop-color="#f0dec7"/><stop offset="0.67" stop-color="#e2d0b3"/><stop offset="1" stop-color="#ddcbac"/></linearGradient><linearGradient id="linear-gradient-48" x1="507.62" y1="431.25" x2="507.62" y2="444.19" gradientUnits="userSpaceOnUse"><stop offset="0" stop-color="#f6e5d0"/><stop offset="0.31" stop-color="#ead8be"/><stop offset="0.68" stop-color="#e0ceb1"/><stop offset="1" stop-color="#ddcbac"/></linearGradient><linearGradient id="linear-gradient-49" x1="520.14" y1="403.87" x2="520.14" y2="419.05" xlink:href="#linear-gradient-48"/><linearGradient id="linear-gradient-50" x1="420.4" y1="476.52" x2="417.5" y2="487.35" gradientUnits="userSpaceOnUse"><stop offset="0" stop-color="#f6e5d0"/><stop offset="0.32" stop-color="#f2e1ca"/><stop offset="0.75" stop-color="#e6d5b9"/><stop offset="1" stop-color="#ddcbac"/></linearGradient><linearGradient id="linear-gradient-51" x1="446.7" y1="474.98" x2="445.76" y2="477.55" gradientUnits="userSpaceOnUse"><stop offset="0" stop-color="#f6e5d0"/><stop offset="0.38" stop-color="#efdec6"/><stop offset="1" stop-color="#ddcbac"/></linearGradient><linearGradient id="linear-gradient-52" x1="572.51" y1="303.5" x2="561.28" y2="327.59" gradientUnits="userSpaceOnUse"><stop offset="0" stop-color="#f6e5d0"/><stop offset="0.38" stop-color="#f4e3cd"/><stop offset="0.66" stop-color="#eddcc4"/><stop offset="0.91" stop-color="#e2d1b4"/><stop offset="1" stop-color="#ddcbac"/></linearGradient><linearGradient id="linear-gradient-53" x1="636.22" y1="241.43" x2="625.84" y2="263.67" xlink:href="#linear-gradient-52"/><linearGradient id="linear-gradient-54" x1="587.49" y1="439.7" x2="583.98" y2="447.23" gradientUnits="userSpaceOnUse"><stop offset="0" stop-color="#f6e5d0"/><stop offset="0.36" stop-color="#f4e3cd"/><stop offset="0.66" stop-color="#eddbc3"/><stop offset="0.93" stop-color="#e1cfb1"/><stop offset="1" stop-color="#ddcbac"/></linearGradient><linearGradient id="linear-gradient-55" x1="617.28" y1="393.55" x2="614.35" y2="399.83" xlink:href="#linear-gradient-54"/></defs><title>Asset 7</title><g id="Layer_2" data-name="Layer 2"><g id="Floor"><polygon class="cls-1" points="1280 752.62 1151.11 752.62 714.76 752.62 510.06 748.13 373.59 742.74 363.89 742.74 243.25 739.32 213.38 788.75 19.63 788.75 23.75 758.03 0 754.73 0 847.98 1280 847.98 1280 752.62"/></g><g id="Wall"><path class="cls-2" d="M263.38,0S23.38,681.25,19.63,788.75H213.38l59.1-97.8,96.78-229.07,297.9,155.94L880,343.21l14.37-6.28Z"/><path class="cls-3" d="M369.26,461.88l40.24-78.27s-200.21-11.67-221.76,0l78.11,78.27Z"/><polygon class="cls-4" points="369.26 461.88 322.35 572.91 421.17 644.88 667.16 617.82 369.26 461.88"/><polygon class="cls-5" points="421.17 644.88 373.59 742.74 510.06 748.13 421.17 644.88"/><polygon class="cls-6" points="421.17 644.88 510.06 748.13 714.76 752.62 667.16 617.82 421.17 644.88"/><polygon class="cls-7" points="879.96 343.21 1151.11 752.62 714.76 752.62 667.16 617.82 879.96 343.21"/><polygon class="cls-8" points="879.96 343.21 894.33 336.93 1252.56 343.21 1280 394.38 1280 752.62 1151.11 752.62 879.96 343.21"/><g id="Layer_29" data-name="Layer 29"><polygon class="cls-9" points="421.17 644.88 373.59 742.74 363.89 742.74 377.78 613.28 421.17 644.88"/></g></g><g id="Volumes"><polygon class="cls-10" points="890.43 657.75 928.65 752.62 996.38 752.62 1004.89 646.85 968.55 747.22 890.43 657.75"/><polygon class="cls-11" points="890.43 657.75 968.55 747.22 1004.89 646.85 967.64 712.25 890.43 657.75"/><polygon class="cls-12" points="890.43 657.75 1004.89 646.85 967.64 712.25 890.43 657.75"/><polygon class="cls-13" points="841.04 578.64 892.63 568.01 870.6 594.07 841.04 578.64"/><polygon class="cls-14" points="841.04 578.64 880.84 618.31 892.63 568.01 870.6 594.07 841.04 578.64"/><polygon class="cls-15" points="841.04 578.64 858.28 698.69 880.84 618.31 841.04 578.64"/><polygon class="cls-13" points="894.28 533.32 951.16 566.48 963.02 565.28 894.28 533.32"/><polygon class="cls-16" points="894.28 533.32 947.66 585.38 963.02 565.28 951.16 566.48 894.28 533.32"/><polygon class="cls-15" points="894.28 533.32 936.27 653.38 949.35 652.14 963.02 565.28 947.66 585.38 894.28 533.32"/><polygon class="cls-13" points="949.63 517.06 989.69 531.91 1002.87 528.67 949.63 517.06"/><polygon class="cls-17" points="949.63 517.06 989.48 552.21 1002.87 528.67 989.69 531.91 949.63 517.06"/><polygon class="cls-15" points="949.63 517.06 992.31 612.25 1002.87 528.67 989.48 552.21 949.63 517.06"/><polyline class="cls-18" points="1027.93 491.55 974.54 478.02 1010.9 440.14 1027.93 491.55"/><polygon class="cls-19" points="1010.9 440.14 1027.93 491.55 1056.68 478.78 1010.9 440.14"/><polygon class="cls-20" points="974.54 478.02 1021.54 517.71 1056.68 478.78 1027.93 491.55 974.54 478.02"/><polygon class="cls-21" points="974.54 478.02 1042.23 564.66 1056.68 478.78 1021.54 517.71 974.54 478.02"/><polygon class="cls-22" points="1014.27 474.28 997.23 481.98 1026.56 490.55 1014.27 474.28"/><polygon class="cls-23" points="997.23 481.98 1014.27 474.28 1017.2 466.36 997.23 481.98"/><polygon class="cls-24" points="1014.27 474.28 1026.56 490.55 1017.2 466.36 1014.27 474.28"/><polygon class="cls-25" points="1020.03 464.2 1029.07 489.63 1043.84 471.97 1020.03 464.2"/><polygon class="cls-26" points="1043.84 471.97 1045.92 480.66 1029.07 489.63 1043.84 471.97"/><polygon class="cls-27" points="1087.99 606.45 1211.14 620.8 1220.32 612.25 1087.99 606.45"/><polygon class="cls-28" points="1220.32 612.25 1217.74 658.4 1211.14 620.8 1220.32 612.25"/><polygon class="cls-29" points="1217.74 658.4 1211.14 620.8 1087.99 606.45 1217.74 658.4"/><polygon class="cls-21" points="1087.99 606.45 1252.18 712.25 1220.32 612.25 1217.74 658.4 1087.99 606.45"/><polygon class="cls-30" points="1097.53 467.17 1246.73 453.3 1248.05 447.14 1097.53 467.17"/><polygon class="cls-31" points="1248.05 447.14 1246.73 453.3 1260.59 501.72 1248.05 447.14"/><polygon class="cls-32" points="1260.59 501.72 1246.73 453.3 1097.53 467.17 1260.59 501.72"/><polygon class="cls-21" points="1098.87 467.45 1201 517.71 1260.59 501.72 1098.87 467.45"/><polygon class="cls-33" points="1191.56 458.44 1184.46 485.75 1182.79 472.01 1191.56 458.44"/><polygon class="cls-34" points="1191.56 458.44 1182.79 472.01 1097.53 467.38 1191.56 458.44"/><polygon class="cls-35" points="1097.53 467.22 1182.79 471.85 1184.46 485.59 1097.53 467.22"/><polygon class="cls-36" points="1197.09 427.68 1253.66 401.41 1253.66 396.16 1197.09 427.68"/><polygon class="cls-37" points="1253.66 396.16 1253.66 401.41 1268.57 421.19 1253.66 396.16"/><polygon class="cls-38" points="1268.57 421.19 1253.66 401.41 1197.09 427.68 1268.57 421.19"/><polygon class="cls-39" points="597.71 581.46 695.2 581.81 683.12 613.05 597.71 581.46"/><polygon class="cls-40" points="683.12 613.05 665.41 619.3 597.71 581.46 683.12 613.05"/><polygon class="cls-41" points="597.71 581.46 601.04 501.89 586.66 533.97 597.71 581.46"/><polygon class="cls-42" points="601.88 499.92 586.66 533.97 552.72 527.83 601.88 499.92"/><polygon class="cls-43" points="552.72 527.83 586.66 533.97 597.71 581.46 552.72 527.83"/><polygon class="cls-15" points="552.72 527.83 548.08 555.41 597.71 581.46 552.72 527.83"/><polygon class="cls-44" points="383.4 431.29 416.14 490.53 465.84 480.98 383.4 431.29"/><polygon class="cls-45" points="383.4 431.29 416.14 490.53 371.32 536.13 383.4 431.29"/><polygon class="cls-46" points="371.32 536.13 416.14 490.53 465.84 480.98 371.32 536.13"/><polygon class="cls-47" points="403.67 401.66 385.89 432.79 411.66 428.95 403.67 401.66"/><polygon class="cls-48" points="385.89 432.79 411.66 428.95 413.83 449.63 385.89 432.79"/><polygon class="cls-49" points="413.83 449.63 411.66 428.95 432.32 419.98 413.83 449.63"/><polygon class="cls-50" points="403.67 401.66 411.66 428.95 432.32 419.98 403.67 401.66"/><polygon class="cls-15" points="385.89 432.79 405.88 452.28 413.83 449.63 385.89 432.79"/><polygon class="cls-51" points="365.46 149.1 387.59 186.24 336.74 217.33 365.46 149.1"/><polygon class="cls-52" points="336.74 217.33 387.59 186.24 415.39 221.91 336.74 217.33"/><polygon class="cls-15" points="336.74 217.33 380.09 247.15 415.39 221.91 336.74 217.33"/><polygon class="cls-53" points="396.83 198.09 387.59 186.24 394.28 175.77 396.83 198.09"/><polygon class="cls-54" points="387.59 186.24 394.28 175.77 372.37 160.71 387.59 186.24"/><polygon class="cls-55" points="217.42 188.3 265.63 240.65 236.63 269.84 217.42 188.3"/><polygon class="cls-56" points="277.75 258.14 265.63 240.65 236.63 269.84 277.75 258.14"/><polygon class="cls-57" points="217.42 188.3 266.73 239.61 277.75 258.14 265.63 240.65 217.42 188.3"/><polygon class="cls-15" points="277.75 258.14 256.32 270.61 236.63 269.84 277.75 258.14"/><polygon class="cls-58" points="210.25 155.31 211.03 241.38 226.31 268.66 210.25 155.31"/><polygon class="cls-59" points="210.25 155.31 211.03 241.38 176.65 253.49 210.25 155.31"/><polygon class="cls-60" points="176.65 253.49 211.03 241.38 226.31 268.66 176.65 253.49"/><polygon class="cls-15" points="176.65 253.49 195.19 271.77 226.53 268.81 176.65 253.49"/><polygon class="cls-61" points="161.55 302.06 179.27 325.91 145.57 348.69 161.55 302.06"/><polygon class="cls-62" points="145.57 348.69 179.27 325.91 198.86 343.96 145.57 348.69"/><polygon class="cls-63" points="161.55 302.06 179.27 325.91 198.86 343.96 161.55 302.06"/><polygon class="cls-15" points="145.57 348.69 198.86 343.96 162.11 364.56 145.57 348.69"/><polygon class="cls-64" points="338.64 534.75 309.01 578.02 283.53 665.09 338.64 534.75"/><polygon class="cls-65" points="338.64 534.75 309.01 578.02 229.86 539.8 338.64 534.75"/><polygon class="cls-66" points="229.86 539.8 309.01 578.02 283.53 665.09 229.86 539.8"/><polygon class="cls-67" points="278.22 657.03 237.61 718.93 213.38 788.75 278.22 657.03"/><polygon class="cls-68" points="278.22 657.03 237.61 718.93 144.27 686 278.22 657.03"/><polygon class="cls-69" points="144.27 686 237.61 718.93 213.38 788.75 144.27 686"/><polygon class="cls-70" points="383.4 582.34 393.73 625.81 432.32 593.93 383.4 582.34"/><polygon class="cls-71" points="432.32 593.93 436.47 601.29 393.73 625.81 432.32 593.93"/><polygon class="cls-72" points="445.99 608.75 446.52 645.31 487.54 616.93 445.99 608.75"/><polygon class="cls-73" points="487.54 616.93 487.54 620.87 446.52 645.31 487.54 616.93"/><polygon class="cls-74" points="336.5 539.8 407.86 584.44 321.67 574.88 336.5 539.8"/><polygon class="cls-75" points="363.01 476.69 379.25 467.3 358.26 543.42 344.77 519.85 363.01 476.69"/><polygon class="cls-76" points="358.26 543.42 371.32 536.13 379.25 467.3 358.26 543.42"/><polygon class="cls-77" points="208.71 158.11 179.08 201.32 194.16 201.09 208.71 158.11"/><polygon class="cls-78" points="194.16 201.09 179.08 201.32 182.75 234.54 194.16 201.09"/><polygon class="cls-79" points="160.13 302.06 128.18 323.01 144.8 348.34 160.13 302.06"/><polygon class="cls-80" points="40.84 686 22.16 651.58 58.71 622.19 40.84 686"/></g><g id="Routes"><g id="Red"><path class="cls-10" d="M70.61,703.35S65,756.74,123,687.2Z"/><path class="cls-81" d="M91.54,667.25s-31.54,8.52-26,29.4,53.28-.85,59.67-12.36,9.37-29.4-11.51-41.76c-17-10-20.71,1.31-21.52,5.91a3.23,3.23,0,0,0,.88,2.82C96.34,654.59,105,664.76,91.54,667.25Z"/><path class="cls-82" d="M94,651.67c-.34-.28-.84.1-.79.53.44,3.51,1.23,14.29-4.19,15.85-6.42,1.86,12.77,2.25,11.77-6.33C100.22,657,96,653.36,94,651.67Z"/><path class="cls-82" d="M121.61,622.19s1.5,5.5,7.24,6.32c0,0,.92,5.23,4.82,0s4.12-4.54,4.12-4.54Z"/><path class="cls-83" d="M126.8,613.23c-2.61,1.47.51,4.82-4.82,6.87s6.77,3.39,8,8.31c1.32,5.41,3-5.13,8.24-4.41s3.48-9.61-4.1-9S128.44,612.31,126.8,613.23Z"/><path class="cls-10" d="M174.42,454.51s5.69,25.2-6.33,16.18-9.7-27-9.7-27Z"/><path class="cls-84" d="M159.07,425.13c-3.7,4.71-9,15.5,3.71,30a5.23,5.23,0,0,0,5.45,1.6c6.26-1.88,19.32-6.87,16-15.1S169.77,426.82,164.44,424A4.26,4.26,0,0,0,159.07,425.13Z"/><path class="cls-10" d="M159.55,482.57s4,23.5-1.34,25.24-21.87-6.64-19-35.17S159.55,482.57,159.55,482.57Z"/><path class="cls-82" d="M138.56,452s-4.4.32-2.53,6.58-2.86,13.66-2.42,17.08,2.2.11,4.19,2.65,2.86,12.23,14.1,3.41S138.56,452,138.56,452Z"/><path class="cls-85" d="M142.14,444.11s-2.53,1.75-2.22,4.31a3.39,3.39,0,0,1-.64,2.57c-1.52,1.9-3.81,5.75-1,9.3a3.24,3.24,0,0,1,0,4c-1.41,1.81-3.73,3.9-6.87,3.64-5.42-.44,11,15.31,24.56,14.6,11.12-.59,12.31-11.48,12.39-15.31a3.29,3.29,0,0,0-.83-2.24C163.49,460.45,145.22,440.48,142.14,444.11Z"/><path class="cls-10" d="M180,419.19s4.95,10.06,8.91,15.55,6.25,10.14,10.64,9.93,4.37-11.3,4.37-11.3l-10-14.83Z"/><path class="cls-82" d="M186.55,401.79s-3.28-1-2.8,14C183.75,415.77,188.77,403.72,186.55,401.79Z"/><path class="cls-86" d="M187.31,399.74a2.29,2.29,0,0,0-2.25,2.5c.39,4.14.44,12.31-4.85,14.2-7.17,2.55,4.17,3.67,6.73,4.31S185.18,433,194.28,435s15.17-6.55,16.45-10.7C212,420.26,209.86,399.76,187.31,399.74Z"/><path class="cls-82" d="M261.91,408.12s-1.28,29.56,6.15,30.36,17.28-7.75,17.28-7.75S273.05,404.4,261.91,408.12Z"/><path class="cls-10" d="M263.71,412.33s-1.79,52.65,9,53.29,16.8-43.29,16.8-43.29S271.16,403.46,263.71,412.33Z"/><path class="cls-87" d="M270.16,400.17a8.29,8.29,0,0,0-7.79,5.27c-1,2.75-.72,6.27,4.45,9.39,10.33,6.26,2.11,9.11,5.28,14.58s12.62,7.49,22.37-.16c7.62-6,1.49-16.82-1.54-21.27a8.4,8.4,0,0,0-3.58-3C285.54,403.35,277.26,400.13,270.16,400.17Z"/><path class="cls-10" d="M244.5,494.66s-2.32,13.7,4.78,13.37,4-17,4-17Z"/><path class="cls-82" d="M243.5,493s-1.58,7.42,2.36,5.77,3-2.36,7.73-2.5-3.79-7.56-3.79-7.56Z"/><path class="cls-88" d="M245.33,484.12s-3.14,4.46-3,7.43.49,6.43,6.76,3.79,7.09.33,7.09-8.08c0,0-1.77-2.6-6.93-1.89C249.28,485.37,247.31,482.8,245.33,484.12Z"/><path class="cls-10" d="M313.87,515.23s-1.68,9.78,4.11,8.56,0-11,0-11Z"/><path class="cls-82" d="M313.41,513.48s-2.13,4.82,2.74,4.21,4.27-2.49,2.9-4.21S313.41,513.48,313.41,513.48Z"/><path class="cls-89" d="M314.66,508a2.17,2.17,0,0,0-2,1.43c-.6,1.64-1.16,4.35.64,6.25,2.74,2.9,7.38-.36,8.41-2.23S323,508,318.13,508Z"/><path class="cls-10" d="M322,418.54s-6.8,32.39,1.45,32.52,16.64-39.93,16.64-39.93Z"/><path class="cls-82" d="M340.06,411.13c-2.09,5.38-8.15,18.43-17.4,16.76a1.54,1.54,0,0,1-1.24-1.37c-.39-3.81-.28-16.24,17.15-17.53A1.55,1.55,0,0,1,340.06,411.13Z"/><path class="cls-90" d="M342.68,394.09s-17.92-13.34-21.35,30.78a2.6,2.6,0,0,0,2.53,2.82c3.16,0,9.82-3.73,23.31-23a2.67,2.67,0,0,0,.44-1.09C347.84,402,347.87,397.7,342.68,394.09Z"/><path class="cls-10" d="M354.14,325.83s6.33,23.17,14.66,23,6.37-16,0-23.81S354.14,325.83,354.14,325.83Z"/><path class="cls-82" d="M358.11,328.86c11.17,2.18,15.51-3.39,16.95-5,.33-.38.67-3.24-.48-1.65C371.32,326.66,344.91,326.27,358.11,328.86Z"/><path class="cls-91" d="M355.25,328.12c3.6.85,13.89,2.17,22.54-7.53,0,0,5.88-7.38-8.5-3.08-10.43,3.11-14.13,6.22-15.15,8.32A1.64,1.64,0,0,0,355.25,328.12Z"/><path class="cls-10" d="M346.84,349.2s5.2,19.74,11.42,17.21-5.71-25.14-5.71-25.14Z"/><path class="cls-82" d="M346,348.4s2.39,4.79,6.37,1.57c2.06-1.67,1.62-3.14,5.47-4.09,2.8-.69.84-4.61.84-4.61Z"/><path class="cls-92" d="M345,341.35a2.65,2.65,0,0,1,1.65-2.06c2.19-.82,7.39-1.7,18.51.77,0,0,5.95,2.42-7.77,5.22,0,0-3.34,1.2-4.8,3a4.19,4.19,0,0,1-5.73.9C345.33,348.07,344.26,345.8,345,341.35Z"/><path class="cls-10" d="M290.49,284s3.28,17.56,6.61,18.1a24.49,24.49,0,0,1,8.31,2.39c3.51,1.66,5-2,5.17-11.64S290.49,284,290.49,284Z"/><path class="cls-82" d="M291.2,283.5a.93.93,0,0,0-.84.83c-.22,2.1,0,9.34,8.55,10.05,1.83.16,3.12,3,6,3.32a5.1,5.1,0,0,0,3.85-1.1.92.92,0,0,0,.34-1l-4-12.52a.91.91,0,0,0-.95-.63Z"/><path class="cls-93" d="M290.48,281.71a3.85,3.85,0,0,1,1.65-3c3.19-2.23,10.73-6.77,17.27-5,8.56,2.36-.93,7-.93,7s5-.81,6.11.29-2.61,13.92-5.21,15.14-5.16,1.84-10-3.17C299.37,293,290,295.81,290.48,281.71Z"/><path class="cls-10" d="M314.57,262.63S316.3,282,330.7,282.42c0,0,9.64-1.89,0-16S314.57,262.63,314.57,262.63Z"/><path class="cls-94" d="M315.3,263.93a4.53,4.53,0,0,1,0-4.9c2.41-3.8,7.84-10.7,15.24-10.16,7.93.57,5.84,15.78,4.54,22.43a3.28,3.28,0,0,1-3.9,2.58C327,273,319.68,270.61,315.3,263.93Z"/><path class="cls-10" d="M237.62,696.59c-.15,2.86,1.84,6.77,9.07,4.53a3.85,3.85,0,0,0,2.64-2.91c.55-2.67-.88-6.56-8.93-4.84A3.51,3.51,0,0,0,237.62,696.59Z"/><path class="cls-95" d="M237.35,695.78c-.14,2.87.84,6.77,8.07,4.54a3.88,3.88,0,0,0,2.64-2.92c.55-2.66.12-6.55-7.93-4.84A3.51,3.51,0,0,0,237.35,695.78Z"/><path class="cls-10" d="M262.22,662.86a3.72,3.72,0,0,0-2.72,3.54c0,2.45.66,5.61,4.21,5.22,5.7-.64,6.49-3.33,6-5.86C269.3,663.53,267.78,661.3,262.22,662.86Z"/><path class="cls-96" d="M261.78,662.38a3.72,3.72,0,0,0-2.72,3.54c0,2.45.66,5.61,4.21,5.22,5.7-.64,6.49-3.33,6-5.86C268.86,663.05,267.34,660.82,261.78,662.38Z"/></g><g id="Orange_copy" data-name="Orange copy"><path class="cls-15" d="M733.77,704.72c-1,1.43-2.58,4.48,2.57,4.11a1.64,1.64,0,0,0,1.19-.63c.94-1.19,2.49-3.89-2.32-4.17A1.61,1.61,0,0,0,733.77,704.72Z"/><path class="cls-97" d="M733.3,704.16c-1,1.43-2.58,4.49,2.57,4.12a1.68,1.68,0,0,0,1.19-.63c.94-1.19,2.5-3.89-2.32-4.18A1.67,1.67,0,0,0,733.3,704.16Z"/><path class="cls-15" d="M693.08,665.65c.13,1.08,1.06,2.47,4.94,2.56a1.07,1.07,0,0,0,1.12-1.06c0-1-.83-2.51-4.92-2.72A1.09,1.09,0,0,0,693.08,665.65Z"/><path class="cls-98" d="M693.08,665.23c.13,1.07,1.06,2.47,4.94,2.56a1.07,1.07,0,0,0,1.12-1.06c0-1.05-.83-2.52-4.92-2.72A1.09,1.09,0,0,0,693.08,665.23Z"/><path class="cls-15" d="M723.46,637.38c-.08.9.87,2.4,6.25,4.18.84.28,1.71.14,1.84-.34.2-.84-.54-2.34-6.19-4.3C724.42,636.6,723.51,636.81,723.46,637.38Z"/><path class="cls-99" d="M723.46,636.83c-.07.91.93,2.42,6.5,4.26.87.29,1.77.16,1.89-.32.21-.84-.58-2.36-6.43-4.38C724.45,636.06,723.5,636.26,723.46,636.83Z"/><path class="cls-15" d="M712.38,624.57s-2.31,8.89,3.57,8.74,7.2-2.6,7.76-3.14S712.38,624.57,712.38,624.57Z"/><path class="cls-100" d="M720.76,615.76c-3,.73-13.82,4.14-6.54,14.32a3.07,3.07,0,0,0,1.85,1.23c2.86.62,10,1.31,10-7.53,0,0-.07-6.1-3.65-7.86A2.44,2.44,0,0,0,720.76,615.76Z"/><path class="cls-15" d="M731.88,569s2.48,6.84,9.5,6.84,2.71-8.11,2.71-8.11Z"/><path class="cls-101" d="M730.24,567.1c-.77,2.2,6.22,7.35,10.92,7.15s8.88-8.37,6.84-10S731.05,564.76,730.24,567.1Z"/><path class="cls-15" d="M768.5,534.42s-5.9,36.73,1.64,41.38,38.32-36.46,37.34-41.38S788.37,538,788.37,538Z"/><path class="cls-82" d="M789.8,521.08s.4,4.17-.87,6.63,0,6.06,0,6.06l8.4-6.35-4.48-7.25Z"/><path class="cls-102" d="M774.89,521.16s-15.56,9.17-1.31,23.42,34.86-8.45,36.19-11.71S811,521,796.93,517.8s-5.34,3.85-5,8.93-10.15,9.33-8.52-1.15C783.4,525.58,787,515.75,774.89,521.16Z"/><path class="cls-15" d="M873.32,558.37s-.38,7.46,3.1,6.44,3.82-6.44,3.82-6.44Z"/><path class="cls-103" d="M874.29,555.92c2.08-.41,5.22-.56,5.88,2a2.45,2.45,0,0,1-1.93,2.92c-1.91.45-4.66.53-5.55-2.37A2,2,0,0,1,874.29,555.92Z"/><path class="cls-10" d="M852.85,521.34s-1.22,18.33,2.45,18.63,2.76-20.1,2.76-20.1Z"/><path class="cls-104" d="M852.68,517c-1.22,1.82-2.59,5,1.08,7.05,0,0,8.14.67,8.28-4.2.09-3.53-4.28-4.16-6.71-4.23A3.06,3.06,0,0,0,852.68,517Z"/><path class="cls-10" d="M841,471.72s3.55,23.82,13,26.14,20.5-20.94,20.5-20.94Z"/><path class="cls-105" d="M841,471.72s-.78,11.92,28.34,11.94c7,0,13.16-17.75,10.86-26.32s-13-6.12-15.14-4.9c-2,1.13-13.08,11.28-21.84,14.34a3.69,3.69,0,0,0-2.26,4.84Z"/><path class="cls-10" d="M857.81,405.48s2.53,31.43,11.07,32.48,22.58-18,22.58-18Z"/><path class="cls-106" d="M857.81,405.48s-.15,20.53,19,20.76,19.35-15.91,19.58-20.76-.93-5.07-3.23-6-27.87-1.67-31.08,0C858.44,401.36,857.54,402.32,857.81,405.48Z"/><path class="cls-10" d="M912.21,381.16s.13,14.08,7.94,13.45,5-8.65,5-8.65Z"/><path class="cls-107" d="M911.71,381.42s4.55,8.4,7.58,8.95a6,6,0,0,0,4.6-.66L916,379.21Z"/><path class="cls-108" d="M911,378.91a2.64,2.64,0,0,0,1.41,3.5c2.62,1.06,7.13,3.42,8.23,7.35.52,1.89,7-.85,5.9-5.07s-6.11-9.7-10.23-9.91C913.75,374.64,911.91,376.87,911,378.91Z"/></g><g id="Blue"><path class="cls-15" d="M652.62,583.93a2.42,2.42,0,0,0-2.94,2.31c-.06,2.59.85,5.71,6.33,3.18C662.21,586.56,656.35,584.73,652.62,583.93Z"/><path class="cls-109" d="M652.62,583.12a2.42,2.42,0,0,0-2.94,2.31c-.06,2.59.85,5.71,6.33,3.18C662.21,585.74,656.35,583.92,652.62,583.12Z"/><path class="cls-15" d="M660.68,557.24s-2.36,4.2,2.59,2.68,2.79-2.68,2.79-2.68Z"/><path class="cls-110" d="M661.13,556.56c1.07-.73,2.86-1.32,5.58-.42a1,1,0,0,1,.15,1.92,7.27,7.27,0,0,1-5.43.41A1.06,1.06,0,0,1,661.13,556.56Z"/><path class="cls-15" d="M675.46,514.88c.7-2,2.49-5,6.83-3.39a3.64,3.64,0,0,1,.93,6.28c-2.35,1.85-5.35,3.18-7.37.31A3.55,3.55,0,0,1,675.46,514.88Z"/><path class="cls-111" d="M675.46,514.15c.7-2,2.49-5,6.83-3.39a3.64,3.64,0,0,1,.93,6.28c-2.35,1.85-5.35,3.18-7.37.31A3.56,3.56,0,0,1,675.46,514.15Z"/><path class="cls-15" d="M693.9,446.38a4,4,0,0,0-5.64,2.88c-.51,2.89-.51,6.82,3.26,6.82s5.37-1.8,6.19-3.23a2.91,2.91,0,0,0-.15-3.06A10.22,10.22,0,0,0,693.9,446.38Z"/><path class="cls-112" d="M694.12,445.86a4,4,0,0,0-5.64,2.88c-.51,2.89-.51,6.82,3.27,6.82,3.61,0,5.36-1.8,6.18-3.23a2.89,2.89,0,0,0-.14-3.06A10.34,10.34,0,0,0,694.12,445.86Z"/><path class="cls-15" d="M650.42,476.5a2.68,2.68,0,0,0-3.08,2c-.62,2.58-.86,6.94,5.45,5.1C659.77,481.55,654.39,477.2,650.42,476.5Z"/><path class="cls-113" d="M650.69,476.11a2.67,2.67,0,0,0-3.07,2c-.62,2.58-.86,6.95,5.45,5.1C660,481.16,654.67,476.81,650.69,476.11Z"/><path class="cls-15" d="M696.32,499.69s-4.67,6.89-1.17,7,5.45-.54,5.57-3.51S696.32,499.69,696.32,499.69Z"/><path class="cls-114" d="M704.57,493.29s15.32.62,0,6.85c0,0-.62-.13-2.24,2.86s-4.11,3.61-6.1,2.74-.62-6-.62-6A8.74,8.74,0,0,1,704.57,493.29Z"/><path class="cls-15" d="M698.89,433.9s-1.23,6.76,5.94,4.92-3.27-8.81-5.22-7.07C699.61,431.75,698.89,431.79,698.89,433.9Z"/><path class="cls-115" d="M699.15,433.51s-1.23,6.76,5.94,4.92-3.27-8.81-5.22-7.07C699.87,431.36,699.15,431.4,699.15,433.51Z"/><path class="cls-15" d="M712.1,416.79a2.3,2.3,0,0,0-.42,1.78c.31,1.87,1.67,6.35,7.6,3.55,7.38-3.48-2.87-6.25-2.87-6.25S713.45,415.11,712.1,416.79Z"/><path class="cls-116" d="M712.36,416.4a2.3,2.3,0,0,0-.42,1.78c.31,1.87,1.67,6.35,7.6,3.55,7.38-3.48-2.87-6.25-2.87-6.25S713.71,414.72,712.36,416.4Z"/><path class="cls-10" d="M710,350.88S691.77,366.4,698.08,371s27.77-4.87,26.85-14.92S710,350.88,710,350.88Z"/><path class="cls-117" d="M706.93,351.1a3.62,3.62,0,0,0,.84,4.29c3.37,3,12.92,9.76,22.28-1.25,11.62-13.68-1-17.07-8.12-14.5C716.3,341.68,709,346.88,706.93,351.1Z"/><path class="cls-10" d="M728.82,328.41s-5.39,7.69-1.31,8.55,7.26-6.37,7.26-6.37Z"/><path class="cls-118" d="M727.58,326.06s-1.3,7.52,6.77,6.51a2,2,0,0,0,1.72-1.58c.36-1.61,1-3.28-.36-4.93S728.71,322.67,727.58,326.06Z"/><path class="cls-10" d="M634.24,376.93s-5.71,7.75-1.74,6.89,7.24-3.07,7.5-4.71S634.24,376.93,634.24,376.93Z"/><path class="cls-119" d="M632.81,374.72c-.55,1.87-1.16,6.3,5.76,5.43a1.9,1.9,0,0,0,1.63-1.73c.28-3,.14-9-6.42-4.95A2.24,2.24,0,0,0,632.81,374.72Z"/></g><g id="White"><path class="cls-120" d="M418,539.8s-4.43,19.56,12.46,14.85,3.6-18.68,0-19.58S419.5,534.62,418,539.8Z"/><path class="cls-121" d="M448.37,539.35a6.75,6.75,0,0,1,7.48-.1.6.6,0,0,1,0,1c-1.44.8-4.69,2.16-7.48.07A.6.6,0,0,1,448.37,539.35Z"/><path class="cls-15" d="M493.94,501.8s-9.18,9-5.55,15.2,26.71-9,26.71-9S515.43,488.05,493.94,501.8Z"/><path class="cls-122" d="M494.33,508.83A9.08,9.08,0,0,1,499.51,498c5.74-2.56,15.17-6.38,22.26-7.42,9.52-1.39-1.49,12.72-5,16.09a15.13,15.13,0,0,1-1.7,1.41C511.27,510.76,497.12,517.63,494.33,508.83Z"/><path class="cls-10" d="M502.72,440.1s.17,23.45,4.9,24.28,4.56-26.66,4.56-26.66Z"/><path class="cls-123" d="M508.91,431.27a1.12,1.12,0,0,0-1.35,1.18c.16,1.39-.32,3.74-3.77,6.69-5.64,4.82,2.61-.16,6,4.16s4.67-8.3,2.68-10.29A6.9,6.9,0,0,0,508.91,431.27Z"/><path class="cls-10" d="M513.36,411.46s-4.83,20.48,5,22.79c0,0,5.68.25,5.26-20.27Z"/><path class="cls-124" d="M515.55,403.91a2.08,2.08,0,0,0-2.47,1.85c-.5,4.9-.68,16.29,9.29,12.56C533.79,414,523.17,405.51,515.55,403.91Z"/><path class="cls-125" d="M413.56,482.6c1.12,1.93,3.19,4.7,6.09,5.31a4.37,4.37,0,0,0,5.11-3.6c.5-2.93.32-7.13-4.63-7.79a10.17,10.17,0,0,0-4.43.21A4,4,0,0,0,413.56,482.6Z"/><path class="cls-126" d="M444.42,474.15s0,3.55,3.25,4C447.67,478.14,450.49,477.55,444.42,474.15Z"/><path class="cls-21" d="M552.51,316.16s14.87,31.72,25.87,30.06,4.33-28.59,4.33-28.59Z"/><path class="cls-107" d="M552.51,316.16S554,331.3,568.89,331c0,0,6.43,1.66,14.67-8.74,0,0,2.06-5.1-1.86-6.1S552.51,316.16,552.51,316.16Z"/><path class="cls-127" d="M560.17,297.74s-16.23,16-1.91,27.79,25.3-9.37,25.3-9.37Z"/><path class="cls-15" d="M622.46,240.88s.52,29,12.48,26.74S622.46,240.88,622.46,240.88Z"/><path class="cls-128" d="M622.55,243.8s6,23.82,12.39,23.82,7.13-9.94,1.87-19.51c-2.84-5.18-5.14-7.89-6.65-9.28a4.34,4.34,0,0,0-4.34-.93C623.84,238.57,621.49,240.13,622.55,243.8Z"/><path class="cls-15" d="M582.23,441.54s-8,8.94-5.92,11.36S589.74,446,589.74,446,586.07,436.6,582.23,441.54Z"/><path class="cls-129" d="M582.23,441.54s4.32,1.6,4.16,5.6,5-1,3.36-4-4-5.1-6.19-4.39A2.07,2.07,0,0,0,582.23,441.54Z"/><path class="cls-15" d="M612.69,396.15c-.5,1.62-.61,3.57,1.41,4.14a3.31,3.31,0,0,0,3.49-1.27c1.27-1.71,2.63-4.5-1.47-5.1A3.16,3.16,0,0,0,612.69,396.15Z"/><path class="cls-130" d="M613.06,395.7c-.49,1.62-.61,3.58,1.41,4.14a3.3,3.3,0,0,0,3.49-1.27c1.28-1.71,2.64-4.5-1.47-5.09A3.16,3.16,0,0,0,613.06,395.7Z"/></g></g></g></svg>